<svg id="Layer_1" data-name="Layer 1" xmlns="http://www.w3.org/2000/svg" xmlns:xlink="http://www.w3.org/1999/xlink" viewBox="0 0 490.71 636.83"><defs><style>.cls-1{fill:none;}.cls-2{fill:#fff;}.cls-3{clip-path:url(#clip-path);}.cls-4{clip-path:url(#clip-path-2);}</style><clipPath id="clip-path" transform="translate(-113.08 -16.51)"><rect class="cls-1" x="574.77" y="653.33" width="700" height="700"/></clipPath><clipPath id="clip-path-2" transform="translate(-113.08 -16.51)"><rect class="cls-1" x="589.64" y="653.33" width="700" height="700"/></clipPath><symbol id="b" data-name="b" viewBox="0 0 13.75 21.84"><path d="M8.14,21.84V17h5.61V13.13H8.14V5.91A2.13,2.13,0,0,1,8.61,4.3a3,3,0,0,1,1.87-.41h2.8V0H8.61C6.46,0,4.94.45,4.05,1.34S2.7,3.76,2.7,5.91v7.22H0V17H2.7v4.82Z"/></symbol></defs><title>eraser</title><polygon class="cls-2" points="219.92 42.49 32.92 336.5 9.92 396.5 47.92 449.5 155.92 517.5 214.92 511.5 411.92 196.5 441.92 139.5 420.92 93.5 284.92 12.49 229.92 26.5 219.92 42.49"/><path d="M289.46,545.5a65.72,65.72,0,0,1-35.4-10.4l-110.26-70a66.31,66.31,0,0,1-20.41-91.46L330.84,47.22A66.33,66.33,0,0,1,422.3,26.81L532.5,96.93a66.27,66.27,0,0,1,20.41,91.41L345.52,514.76a66.27,66.27,0,0,1-56.06,30.74ZM386.84,38.2a44.55,44.55,0,0,0-37.71,20.66L141.74,385.28a44.63,44.63,0,0,0,13.69,61.54l110.26,70.06a44.63,44.63,0,0,0,61.54-13.69L534.62,176.71a44.56,44.56,0,0,0-13.69-61.54l-110.26-70a44.35,44.35,0,0,0-23.83-7Z" transform="translate(-113.08 -16.51)"/><path d="M506.43,252.12a10.82,10.82,0,0,1-5.79-1.68L296.86,121a10.84,10.84,0,0,1,11.64-18.29L512.22,232.15a10.82,10.82,0,0,1-5.85,20Z" transform="translate(-113.08 -16.51)"/><path d="M373.64,461.07a10.79,10.79,0,0,1-5.79-1.68L164.07,329.78a10.83,10.83,0,0,1,11.7-18.17L379.48,441.09a10.83,10.83,0,0,1-5.84,20Z" transform="translate(-113.08 -16.51)"/><g class="cls-3"><use width="13.75" height="21.84" transform="matrix(1, 0, 0, -1, 462.09, 636.83)" xlink:href="#b"/></g><g class="cls-4"><use width="13.75" height="21.84" transform="matrix(1, 0, 0, -1, 476.96, 636.83)" xlink:href="#b"/></g></svg>