<svg id="Layer_1" data-name="Layer 1" xmlns="http://www.w3.org/2000/svg" viewBox="0 0 380.75 379.3"><defs><style>.cls-1{fill:#fff;}</style></defs><title>pencil</title><polygon class="cls-1" points="302.36 8.75 287.2 14.32 66.92 236.02 4.9 375.03 148.9 309.44 372.03 85.6 377.02 60.65 354.92 30 320.7 2.91 302.36 8.75"/><path d="M529.49,131.8,499,101.22a37,37,0,0,0-26.36-10.87h0a37,37,0,0,0-26.34,10.87l-12.9,12.9-36.16,36.16s0,0,0,0L222,325.45a4,4,0,0,0-.41.6,3.6,3.6,0,0,0-.39.57l-.1.14L160,463.49a4.37,4.37,0,0,0,5.73,5.8l138.18-59.64c.11,0,.19-.15.3-.2a4.24,4.24,0,0,0,.82-.56c.07-.06.17-.09.23-.16L480.37,233.61l.08-.05,49.06-49.06a37.31,37.31,0,0,0,0-52.7Zm-50.71,91.06L407.88,152l28.55-28.56,70.9,70.91ZM298.48,402.48l-68.84,29.71a4.34,4.34,0,0,0-1.21-2.73L201.29,402.3a4.3,4.3,0,0,0-3.83-1.14l30.78-68.9c4.66-1,17-2.91,24.76,3.72,6.3,5.43,8.42,15.68,6.31,30.5a4.37,4.37,0,0,0,4.95,5c14.82-2.12,25.08,0,30.5,6.31,6.61,7.68,4.74,20.05,3.72,24.73ZM268.8,355.73c-.11-11.84-3.48-20.71-10.14-26.42-6.39-5.48-14.51-6.87-21.3-6.83L401.71,158.14l32.34,32.35Zm-74.25,51.93a3.74,3.74,0,0,0,.55.83l27,27L172.6,456.81Zm113.71-14.27c0-6.8-1.36-14.92-6.84-21.32-5.71-6.66-14.59-10-26.44-10.14L440.24,196.68,472.59,229ZM523.33,178.31l-9.81,9.81-70.9-70.91,9.8-9.81a28.34,28.34,0,0,1,20.16-8.3h0a28.27,28.27,0,0,1,20.16,8.31L523.3,138a28.55,28.55,0,0,1,0,40.32Z" transform="translate(-159.64 -90.35)"/></svg>